<?xml version="1.0" standalone="no"?>
<!DOCTYPE svg PUBLIC "-//W3C//DTD SVG 20010904//EN"
 "http://www.w3.org/TR/2001/REC-SVG-20010904/DTD/svg10.dtd">
<svg version="1.0" xmlns="http://www.w3.org/2000/svg"
 width="400.000000pt" height="400.000000pt" viewBox="0 0 400.000000 400.000000"
 preserveAspectRatio="xMidYMid meet">

<g transform="translate(0.000000,400.000000) scale(0.100000,-0.100000)"
fill="#000000" stroke="none">
<path d="M1818 3360 c-301 -54 -522 -247 -598 -522 -11 -40 -20 -103 -20 -139
0 -62 29 -255 48 -324 7 -23 3 -42 -17 -85 -23 -49 -26 -68 -26 -165 0 -104 2
-114 34 -181 18 -40 50 -89 72 -110 34 -33 45 -58 95 -208 31 -94 72 -206 92
-249 35 -77 36 -79 25 -144 -22 -125 -110 -259 -222 -336 -25 -17 -291 -158
-591 -314 l-545 -282 -3 -151 -3 -150 1841 0 1841 0 -3 151 -3 151 -538 277
c-295 152 -565 297 -599 321 -119 87 -207 221 -226 345 -9 58 -8 63 28 135 21
42 62 152 91 245 47 153 57 174 92 210 109 109 145 329 77 469 l-20 42 20 91
c11 50 24 134 30 187 10 86 9 106 -9 175 -64 253 -272 466 -531 542 -59 17
-107 22 -230 25 -85 1 -176 -1 -202 -6z"/>
</g>
</svg>
