<?xml version="1.0" encoding="utf-8"?>
<!-- Generator: Adobe Illustrator 24.2.1, SVG Export Plug-In . SVG Version: 6.00 Build 0)  -->
<svg version="1.1" id="Layer_1" xmlns="http://www.w3.org/2000/svg" xmlns:xlink="http://www.w3.org/1999/xlink" x="0px" y="0px"
	 viewBox="0 0 2756.6 446.4" style="enable-background:new 0 0 2756.6 446.4;" xml:space="preserve">
<style type="text/css">
	.st0{fill:#FFFFFF;}
	.st1{fill:none;stroke:#000000;stroke-width:7;stroke-miterlimit:10;}
</style>
<rect x="3.1" class="st0" width="2753.5" height="446.4"/>
<rect x="3.1" width="1207" height="446.4"/>
<rect x="1285.8" y="62.7" class="st1" width="1383.1" height="314.4"/>
<g>
	<g>
		<path class="st0" d="M130.4,292.8l44.9-53.6c22.2,25,41,44.5,84.5,46.2c21.1,0.8,32.7-8.2,32.4-23.3
			c-0.3-13.8-18.4-16.7-42.2-21.4c-56.4-11.5-106-27.7-106-81v-0.7c0-47.9,37-87.6,106.3-87.6c48.5,0,84.8,14.1,113.9,37.2
			l-38.4,53.3c-21.9-19.4-34.3-36.4-68.5-41.1c-19.7-2.7-39.8,3.7-38.8,21.7c1.1,21.4,20.2,20.9,44.4,25.5
			c64.3,11.9,107.4,30.6,107.4,81.3v0.7c0,52.9-44.8,87.1-112.3,87.1C207,337,162.4,320.9,130.4,292.8z"/>
	</g>
	<g>
		<path class="st0" d="M390.5,78.6h84.1v252h-84.1V78.6z"/>
	</g>
	<g>
		<path class="st0" d="M566.2,202.4L484.7,78.6h95.6l36.3,60.1l36.6-60.1h93.8l-81.6,122.7l85.1,129.2H655l-39.9-65.5l-40.2,65.5
			h-93.8L566.2,202.4z"/>
	</g>
	<g>
		<path class="st0" d="M835.7,202.4L754.1,78.6h95.6l36.3,60.1l36.6-60.1h93.8l-81.6,122.7l85.1,129.2h-95.6l-39.9-65.5l-40.2,65.5
			h-93.8L835.7,202.4z"/>
	</g>
</g>
<g>
	<g>
		<path d="M824.6,314.4l-1.9-6.8c3.9-1.1,7.1-2.9,9.3-6.2c1.8-2.6,1.8-4.8,0.1-6l-0.1-0.1c-1.6-1.1-3.1-0.7-7.6,3.3
			c-5.4,4.8-9.5,7.4-15.2,3.5l-0.1-0.1c-5.2-3.5-5.8-10.1-1.8-16c2.8-4.2,6.6-6.9,10.9-8.2l2.5,6.5c-3.5,1.3-6.3,3.1-7.9,5.5
			c-1.6,2.4-1.4,4.4,0,5.4l0.1,0.1c1.9,1.3,3.3,0.5,8-3.6c5.5-4.8,9.8-6.7,14.8-3.2l0.1,0.1c5.7,3.9,5.9,10.4,1.7,16.6
			C834.6,309.7,830.1,313.1,824.6,314.4z"/>
	</g>
	<g>
		<path d="M824.9,261.3l8-11.7c4.7-6.9,11.5-8.2,17.4-4.2l0.1,0.1c6.6,4.5,6.6,12,2.2,18.5l-3.3,4.8l8.6,5.9l-4.3,6.3L824.9,261.3z
			 M847.1,259.8c2.1-3.2,1.5-6.3-0.9-8l-0.1-0.1c-2.8-1.9-5.7-1-7.8,2.2l-3.3,4.9l8.8,6L847.1,259.8z"/>
	</g>
	<g>
		<path d="M849.3,225.4l4.3-6.3l28.7,19.6l-4.3,6.3L849.3,225.4z"/>
	</g>
	<g>
		<path d="M864.1,203.7l8.9-13.1c2.5-3.7,5.4-5.8,8.6-6.4c2.7-0.5,5.5,0.2,8.2,2l0.1,0.1c4.6,3.2,5.8,7.6,4.7,12.2l15,0l-5,7.4
			l-13.4-0.1l-3.4,5l9.2,6.3l-4.3,6.3L864.1,203.7z M886.6,200.4c2.1-3.1,1.7-6-0.8-7.6l-0.1-0.1c-2.7-1.8-5.4-0.9-7.5,2.2l-4.3,6.3
			l8.2,5.6L886.6,200.4z"/>
	</g>
	<g>
		<path d="M890,165.5l4.3-6.3l28.7,19.6l-4.3,6.3L890,165.5z"/>
	</g>
	<g>
		<path d="M915.1,141l-5.9,8.7l-5.8-4l16.2-23.8l5.8,4l-5.9,8.7l22.9,15.6l-4.3,6.3L915.1,141z"/>
	</g>
	<g>
		<path d="M951.1,128.3l-1.9-6.8c3.9-1.1,7.1-2.9,9.3-6.2c1.8-2.6,1.8-4.8,0.1-6l-0.1-0.1c-1.6-1.1-3.1-0.7-7.6,3.3
			c-5.4,4.8-9.5,7.4-15.2,3.5l-0.1-0.1c-5.2-3.5-5.8-10.1-1.8-16c2.8-4.2,6.6-6.9,10.9-8.2l2.5,6.5c-3.5,1.3-6.3,3.1-7.9,5.5
			c-1.6,2.4-1.4,4.4,0,5.4l0.1,0.1c1.9,1.3,3.3,0.5,8-3.6c5.5-4.8,9.8-6.7,14.8-3.2l0.1,0.1c5.7,3.9,5.9,10.4,1.7,16.6
			C961.1,123.5,956.6,126.9,951.1,128.3z"/>
	</g>
</g>
<g>
	<g>
		<g>
			<path class="st0" d="M1039.2,117.1c-10.5,0-19-8.5-19-19s8.5-19,19-19c10.5,0,19,8.5,19,19S1049.6,117.1,1039.2,117.1z
				 M1039.2,82.3c-8.7,0-15.8,7.1-15.8,15.8s7.1,15.8,15.8,15.8c8.7,0,15.8-7.1,15.8-15.8S1047.9,82.3,1039.2,82.3z"/>
		</g>
	</g>
	<g>
		<g>
			<path class="st0" d="M1029.5,95.3h-3.5v-2.8h10.2v2.8h-3.5v8.8h-3.2V95.3z"/>
		</g>
		<g>
			<path class="st0" d="M1037.6,92.5h3.4l2.8,4.5l2.8-4.5h3.4v11.6h-3.2v-6.7l-3,4.5h-0.1l-2.9-4.5v6.6h-3.1V92.5z"/>
		</g>
	</g>
</g>
<g>
	<g>
		<g>
			<path d="M2633.8,113.4c-10.5,0-19-8.5-19-19s8.5-19,19-19s19,8.5,19,19S2644.3,113.4,2633.8,113.4z M2633.8,78.5
				c-8.7,0-15.8,7.1-15.8,15.8s7.1,15.8,15.8,15.8s15.8-7.1,15.8-15.8S2642.5,78.5,2633.8,78.5z"/>
		</g>
	</g>
	<g>
		<g>
			<path d="M2624.2,91.6h-3.5v-2.8h10.2v2.8h-3.5v8.8h-3.2V91.6z"/>
		</g>
		<g>
			<path d="M2632.3,88.8h3.4l2.8,4.5l2.8-4.5h3.4v11.6h-3.2v-6.7l-3,4.5h-0.1l-2.9-4.5v6.6h-3.1V88.8z"/>
		</g>
	</g>
</g>
<g>
	<g>
		<path d="M177,373c-4.2,3.2-8.7,3.3-13.7,3.3h-23.2v19.4h-7v-48.3h29.5c1.2,0,2.5,0.1,3.7,0.1c2.1,0.2,9.1,0.5,13.2,6.4
			c1.6,2.4,2.5,5.3,2.5,8.3C182.1,364,181.7,369.4,177,373z M172.9,356.5c-2.7-3.4-7.4-3.4-11.3-3.4h-21.5v17.4h22.3
			c3.8,0,7.9-0.1,10.5-3.4c0.8-0.9,1.8-2.6,1.8-5.5C174.6,360.8,174.5,358.6,172.9,356.5z"/>
		<path d="M141.5,396.9H132v-50.8h30.8c1.3,0,2.5,0.1,3.8,0.1l0.4,0c2.6,0.2,9.5,0.8,13.7,6.9c1.7,2.5,2.7,5.7,2.7,9
			c0,2.9-0.7,8.2-5.6,11.9c-4.6,3.5-9.6,3.5-14.4,3.5h-21.9V396.9z M134.5,394.4h4.4V375h24.4c4.6,0,9,0,12.9-3l0,0
			c4-3,4.6-7.5,4.6-9.9c0-2.8-0.8-5.5-2.2-7.6c-3.5-5.1-9.4-5.6-11.8-5.8l-0.4,0c-1.2-0.1-2.4-0.1-3.6-0.1h-28.2V394.4z
			 M162.4,371.8h-23.5v-20h22.8c4.1,0,9.1,0,12.3,3.9c1.3,1.6,2,3.7,2,6c0,3.2-1.1,5.2-2.1,6.3C170.7,371.8,165.9,371.8,162.4,371.8
			z M141.4,369.3h21c3.9,0,7.3-0.2,9.5-2.9c0.7-0.8,1.5-2.3,1.5-4.7c0-1.7-0.5-3.2-1.4-4.4l0,0c-2.4-2.9-6.6-2.9-10.3-2.9h-20.3
			V369.3z"/>
	</g>
	<g>
		<path d="M188.8,395.6v-48.3h44.5v6h-37.6v14.4h36.7v5.7h-36.7v16.3h39.4v6H188.8z"/>
		<path d="M236.3,396.9h-48.8v-50.8h47v8.5h-37.6v11.8h36.7v8.3h-36.7v13.8h39.4V396.9z M190.1,394.4h43.7V391h-39.4v-18.8h36.7
			v-3.2h-36.7V352H232v-3.4h-41.9V394.4z"/>
	</g>
	<g>
		<path d="M289.4,395.6L273,376.3h-23.3v19.4h-6.9v-48.3h32.9c4.1,0,5.6,0.2,7.7,0.8c6.5,1.7,10.2,6.8,10.2,13.4
			c0,2.6-0.5,9.4-7.8,12.4c-1.2,0.5-2.5,0.9-5.3,1.3l17.8,20.5H289.4z M285.2,357c-2.1-3.6-5.3-4-9-4h-26.5v17.5h23.8
			c3.9,0,8.5-0.1,11.1-3.6c0.7-0.8,1.8-2.5,1.8-5.3C286.4,360.9,286.4,359,285.2,357z"/>
		<path d="M301.1,396.9h-12.3l-16.3-19.4H251v19.4h-9.4v-50.8h34.1c4.3,0,5.9,0.2,8,0.8c7,1.8,11.1,7.3,11.1,14.6
			c0,3.7-1.1,10.5-8.6,13.6c-1,0.4-1.9,0.7-3.3,1L301.1,396.9z M290,394.4h5.6L278,374.3l2.3-0.3c2.5-0.4,3.7-0.7,5-1.2
			c6.1-2.5,7-8.1,7-11.2c0-6.2-3.4-10.6-9.2-12.2c-2-0.5-3.4-0.7-7.3-0.7h-31.6v45.8h4.4V375h25.1L290,394.4z M273.5,371.9h-25.1
			v-20h27.8c3.8,0,7.7,0.4,10.1,4.6c1.4,2.4,1.4,4.6,1.4,5.3c0,2.4-0.7,4.4-2.1,6.1C282.5,371.9,277.1,371.9,273.5,371.9z
			 M250.9,369.3h22.6c4.1,0,7.9-0.2,10.1-3.1c1-1.2,1.5-2.7,1.5-4.5c0-1-0.1-2.5-1.1-4.1l0,0c-1.6-2.8-3.9-3.3-7.9-3.3h-25.2V369.3z
			"/>
	</g>
	<g>
		<path d="M370.1,395.6l-5.9-11.9h-29.6l-5.9,11.9H321l25-48.3h7.3l24.7,48.3H370.1z M349.5,354.2l-12,24h23.8L349.5,354.2z"/>
		<path d="M380.1,396.9h-10.8l-5.9-11.9h-28.1l-5.9,11.9h-10.6l26.3-50.8h8.9L380.1,396.9z M370.9,394.4h5.1l-23.4-45.8h-5.8
			l-23.7,45.8h4.9l5.9-11.9H365L370.9,394.4z M363.3,379.5h-27.9l14.1-28.1L363.3,379.5z M339.5,376.9h19.8l-9.8-19.8L339.5,376.9z"
			/>
	</g>
	<g>
		<path d="M430.2,395.6l-16.3-19.4h-23.3v19.4h-6.9v-48.3h32.9c4.1,0,5.6,0.2,7.7,0.8c6.5,1.7,10.2,6.8,10.2,13.4
			c0,2.6-0.5,9.4-7.8,12.4c-1.2,0.5-2.5,0.9-5.3,1.3l17.8,20.5H430.2z M426.1,357c-2.1-3.6-5.3-4-9-4h-26.5v17.5h23.8
			c3.9,0,8.5-0.1,11.1-3.6c0.7-0.8,1.8-2.5,1.8-5.3C427.3,360.9,427.2,359,426.1,357z"/>
		<path d="M442,396.9h-12.3l-16.3-19.4h-21.4v19.4h-9.4v-50.8h34.1c4.3,0,5.9,0.2,8,0.8c7,1.8,11.1,7.3,11.1,14.6
			c0,3.7-1.1,10.5-8.6,13.6c-1,0.4-1.9,0.7-3.3,1L442,396.9z M430.8,394.4h5.6l-17.5-20.1l2.3-0.3c2.5-0.4,3.7-0.7,5-1.2
			c6.1-2.5,7-8.1,7-11.2c0-6.2-3.4-10.6-9.2-12.2c-2-0.5-3.4-0.7-7.3-0.7H385v45.8h4.4V375h25.1L430.8,394.4z M414.4,371.9h-25.1
			v-20H417c3.8,0,7.7,0.4,10.1,4.6c1.4,2.4,1.4,4.6,1.4,5.3c0,2.4-0.7,4.4-2.1,6.1C423.4,371.9,418,371.9,414.4,371.9z M391.8,369.3
			h22.6c4.1,0,7.9-0.2,10.1-3.1c1-1.2,1.5-2.7,1.5-4.5c0-1-0.1-2.5-1.1-4.1l0,0c-1.6-2.8-3.9-3.3-7.9-3.3h-25.2V369.3z"/>
	</g>
	<g>
		<path d="M487.3,389.9c-6.6,5.5-15,5.7-23,5.7H445v-48.3h24c1.4,0,2.7,0,4,0.1c2.2,0.1,7.4,0.5,12.5,3.8c6.8,4.4,9.9,11.9,9.9,19.9
			C495.4,378.1,492.7,385.3,487.3,389.9z M476.4,353.7c-2.3-0.6-5.1-0.7-7.4-0.7h-17.1v36.8H466c1.3,0,2.5-0.1,3.8-0.1
			c2.1-0.1,8-0.2,12.9-4.5c5.5-4.9,5.8-12,5.8-14.3C488.4,362.9,484.4,355.8,476.4,353.7z"/>
		<path d="M464.2,396.9h-20.5v-50.8H469c1.4,0,2.7,0,4.1,0.1c4.8,0.2,9.3,1.5,13.1,4c6.8,4.4,10.5,11.9,10.5,21
			c0,7.8-3.2,15.2-8.6,19.7C480.9,396.9,471.7,396.9,464.2,396.9z M446.2,394.4h18c8.6,0,16.2-0.4,22.2-5.4l0,0
			c4.8-4,7.7-10.7,7.7-17.8c0-8.2-3.3-14.9-9.3-18.9c-3.4-2.2-7.5-3.5-11.8-3.6c-1.4-0.1-2.6-0.1-4-0.1h-22.7V394.4z M466,391.1
			h-15.3v-39.3H469c2.6,0,5.4,0.1,7.8,0.7h0c7.9,2.1,12.9,9.1,13,18.4c0,3.6-0.8,10.4-6.2,15.3c-5.2,4.6-11.3,4.8-13.6,4.8l-0.2,0
			C468.4,391,467.2,391.1,466,391.1z M453.1,388.6H466c1.2,0,2.4-0.1,3.5-0.1l0.2,0c2.1-0.1,7.6-0.3,12.1-4.2
			c4.7-4.2,5.4-10.1,5.4-13.3c-0.1-8.2-4.2-14.1-11.1-16c-2.1-0.6-4.7-0.6-7.1-0.6h-15.8V388.6z"/>
	</g>
	<g>
		<path d="M552.8,385.4c-3.8,9.2-14.5,11.4-23.2,11.4c-2.3,0-11.1,0.1-18-4.7c-2.9-2-4.2-4.1-4.9-5.3c-1.9-3.6-2.1-7.1-2.1-11v-28.4
			h6.9V376c0,0.5-0.1,2.6,0.3,4.5c0.7,4.4,2.9,6,4.6,7.1c2.4,1.5,6.4,3.2,13.1,3.2c0.9,0,9,0,13.7-3.4c1.6-1.2,2.6-2.9,2.9-3.5
			c1.1-2.3,1.1-4.5,1.1-7v-29.6h6.9v29.1C554.1,379.6,554.1,382.4,552.8,385.4z"/>
		<path d="M529.5,398.1c-7.7,0-14-1.7-18.7-5c-2.9-2-4.4-4.3-5.2-5.8c-2-3.8-2.2-7.5-2.2-11.6v-29.7h9.4l0,30.2c0,0.7,0,2.5,0.3,4
			c0.6,4.1,2.6,5.3,4.1,6.3c3.2,2,7.3,3,12.4,3c1.4,0,8.8-0.2,12.9-3.2c1.3-1,2.2-2.4,2.5-3c1-2,1-4.1,1-6.5v-30.8h9.4v30.3
			c0,3.4-0.1,6.3-1.5,9.5C550.7,393.8,542.1,398.1,529.5,398.1C529.5,398.1,529.5,398.1,529.5,398.1z M505.9,348.6v27.1
			c0,3.9,0.1,7.1,1.9,10.4c0.8,1.4,2,3.2,4.5,4.9c4.3,3,10,4.5,17.1,4.5c8.2,0,18.6-1.8,22.2-10.6l0,0c1.2-2.8,1.3-5.3,1.3-8.5
			v-27.8h-4.4v28.3c0,2.6,0,5.1-1.2,7.6c-0.1,0.2-1.1,2.3-3.2,4c-4.6,3.4-12.2,3.7-14.4,3.7c-5.6,0-10.1-1.1-13.8-3.4
			c-2.1-1.4-4.5-3.2-5.2-8c-0.3-1.8-0.3-3.7-0.3-4.5l0-0.2v-27.4H505.9z"/>
	</g>
	<g>
		<path d="M606.6,395.6l-5.9-11.9h-29.6l-5.9,11.9h-7.7l25-48.3h7.3l24.7,48.3H606.6z M586,354.2l-12,24h23.8L586,354.2z"/>
		<path d="M616.6,396.9h-10.8l-5.9-11.9h-28.1l-5.9,11.9h-10.6l26.3-50.8h8.9L616.6,396.9z M607.4,394.4h5.1L589,348.6h-5.8
			l-23.7,45.8h4.9l5.9-11.9h31.2L607.4,394.4z M599.8,379.5h-27.9l14.1-28.1L599.8,379.5z M576,376.9h19.8l-9.8-19.8L576,376.9z"/>
	</g>
	<g>
		<path d="M686.2,395.6l-5.9-11.9h-29.6l-5.9,11.9h-7.7l25-48.3h7.3l24.7,48.3H686.2z M665.6,354.2l-12,24h23.8L665.6,354.2z"/>
		<path d="M696.2,396.9h-10.8l-5.9-11.9h-28.1l-5.9,11.9h-10.6l26.3-50.8h8.9L696.2,396.9z M687,394.4h5.1l-23.4-45.8h-5.8
			l-23.7,45.8h4.9l5.9-11.9h31.2L687,394.4z M679.5,379.5h-27.9l14.1-28.1L679.5,379.5z M655.6,376.9h19.8l-9.8-19.8L655.6,376.9z"
			/>
	</g>
	<g>
		<path d="M742.2,389.9c-6.6,5.5-15,5.7-23,5.7h-19.3v-48.3h24c1.4,0,2.7,0,4,0.1c2.2,0.1,7.4,0.5,12.5,3.8
			c6.8,4.4,9.9,11.9,9.9,19.9C750.3,378.1,747.7,385.3,742.2,389.9z M731.3,353.7c-2.3-0.6-5.1-0.7-7.4-0.7h-17.1v36.8h14.1
			c1.3,0,2.5-0.1,3.8-0.1c2.1-0.1,8-0.2,12.9-4.5c5.5-4.9,5.8-12,5.8-14.3C743.3,362.9,739.3,355.8,731.3,353.7z"/>
		<path d="M719.2,396.9h-20.5v-50.8h25.2c1.4,0,2.7,0,4.1,0.1c4.8,0.2,9.3,1.5,13.1,4c6.8,4.4,10.5,11.9,10.5,21
			c0,7.8-3.2,15.2-8.6,19.7C735.9,396.9,726.6,396.9,719.2,396.9z M701.2,394.4h18c8.6,0,16.2-0.4,22.2-5.4l0,0
			c4.8-4,7.7-10.7,7.7-17.8c0-8.2-3.3-14.9-9.3-18.9c-3.4-2.2-7.5-3.5-11.8-3.6c-1.4-0.1-2.7-0.1-4-0.1h-22.7V394.4z M720.9,391.1
			h-15.3v-39.3h18.3c2.6,0,5.4,0.1,7.8,0.7h0c7.9,2.1,12.9,9.1,13,18.4c0,3.6-0.8,10.4-6.2,15.3c-5.2,4.6-11.3,4.8-13.6,4.8l-0.2,0
			C723.3,391,722.1,391.1,720.9,391.1z M708.1,388.6h12.8c1.2,0,2.4-0.1,3.5-0.1l0.2,0c2.1-0.1,7.6-0.3,12.1-4.2
			c4.7-4.2,5.4-10.1,5.4-13.3c-0.1-8.2-4.2-14.1-11.1-16c-2.1-0.6-4.7-0.6-7.1-0.6h-15.8V388.6z"/>
	</g>
	<g>
		<path d="M825.7,395.6l-5.9-11.9h-29.6l-5.9,11.9h-7.7l25-48.3h7.3l24.7,48.3H825.7z M805,354.2l-12,24h23.8L805,354.2z"/>
		<path d="M835.7,396.9h-10.8L819,385h-28.1l-5.9,11.9h-10.6l26.3-50.8h8.9L835.7,396.9z M826.5,394.4h5.1l-23.4-45.8h-5.8
			l-23.7,45.8h4.9l5.9-11.9h31.2L826.5,394.4z M818.9,379.5H791l14.1-28.1L818.9,379.5z M795.1,376.9h19.8l-9.8-19.8L795.1,376.9z"
			/>
	</g>
	<g>
		<path d="M883.2,389.1c-4.3,6-12.4,7-14.2,7.2c-1.1,0.1-3.9,0.5-7,0.5c-1.4,0-7.3-0.1-12.4-1.4c-1.1-0.3-2.8-0.7-5.2-1.7
			c-2.5-1.1-4.2-2.3-5.1-2.9c-2.6-2-3.8-3.8-4.5-4.9l6.4-2.6c0.3,0.4,0.6,0.8,1,1.2c1,1,3.3,2.8,6.6,4.2c5.5,2.3,12.1,2.3,13.7,2.3
			c1.2,0,8.5,0.2,13.1-3.3c2.9-2.2,3.3-5.2,3.3-6.5c0-2.8-1.6-4.9-4.1-6c-3.6-1.6-11.9-2.1-15.7-2.4c-9.2-0.8-13.7-1.2-17.3-4.5
			c-3.3-3-3.4-6.4-3.4-8.1c0-6.8,4.6-9.9,6.7-11c2.9-1.6,8.1-3.1,15.9-3.1c9.6,0,15.3,2.3,18.8,4.6c0.8,0.5,1.5,1,2.2,1.6
			c1.6,1.3,2.7,3,3.1,3.5l-6.3,2.5c-0.3-0.3-1.6-1.6-2.9-2.5c-2.7-1.8-7.2-4-14.8-4c-4.9,0-8.7,0.9-10.5,1.6
			c-4.2,1.6-5.3,4.4-5.3,6.5c0,1,0.3,2.1,0.8,3c1.7,2.7,5.1,3,7.9,3.4c5.3,0.7,10.7,1,16,1.6c7.4,0.9,10.9,2.8,13.2,5.7
			c2.4,3.1,2.5,6.2,2.5,7.6C885.6,385.2,884.1,387.8,883.2,389.1z"/>
		<path d="M862,398.1c-0.7,0-7.1,0-12.7-1.5c-1.2-0.3-3-0.7-5.4-1.8c-2.8-1.2-4.7-2.6-5.3-3.1c-2.7-2-3.9-3.9-4.7-5l-1-1.4l8.7-3.5
			l0.7,0.9c0.3,0.3,0.5,0.6,0.8,0.9c0.5,0.5,2.6,2.4,6.2,3.9c4.9,2,10.9,2.2,13.2,2.2h0.2c0.1,0,0.2,0,0.2,0c6.5,0,10.1-1.6,11.9-3
			c2.6-2,2.8-4.7,2.8-5.5c0-2.8-1.8-4.1-3.3-4.8c-2.9-1.3-9.6-1.8-13.6-2.1L859,374c-9.5-0.8-14.2-1.3-18-4.8
			c-3.8-3.5-3.8-7.6-3.8-9c0-7.1,4.6-10.6,7.4-12.1c2.2-1.2,7.4-3.3,16.5-3.3c8,0,14.6,1.6,19.5,4.8c0.9,0.6,1.6,1.1,2.3,1.8
			c1.3,1.1,2.4,2.5,2.9,3.2c0.1,0.2,0.2,0.3,0.3,0.4l1.1,1.3l-8.7,3.5l-0.6-0.6c-1.2-1.2-2.2-2-2.8-2.4c-3.6-2.5-8.4-3.8-14.1-3.8
			c-4.6,0-8.3,0.8-10.1,1.5c-4.1,1.5-4.5,4.2-4.5,5.3c0,0.8,0.2,1.7,0.6,2.3c1.3,2.1,4,2.4,6.6,2.7l0.4,0.1c2.9,0.4,5.8,0.6,8.7,0.9
			c2.4,0.2,4.9,0.4,7.3,0.7c7.1,0.8,11.2,2.6,14,6.1c2.8,3.6,2.8,7.2,2.8,8.4c0,4.2-1.5,7.1-2.7,8.8c-3,4.2-8.4,6.9-15.1,7.7
			C868.2,397.7,865.2,398.1,862,398.1z M836.8,386.4c0.7,0.9,1.7,2.1,3.3,3.3c0.5,0.4,2.2,1.7,4.8,2.8c2.2,1,3.8,1.4,4.9,1.6
			c5.6,1.4,12,1.4,12.2,1.4c3.1,0,5.9-0.4,6.8-0.5c6-0.7,10.8-3.1,13.3-6.7l0,0c0.8-1.1,2.2-3.6,2.2-7.3c0-1,0-3.9-2.3-6.8
			c-1.7-2.1-4.4-4.3-12.3-5.2c-2.4-0.3-4.8-0.5-7.2-0.7c-2.9-0.2-5.8-0.5-8.7-0.9l-0.4,0c-2.9-0.3-6.5-0.8-8.4-3.9
			c-0.7-1.1-1-2.4-1-3.7c0-1.3,0.4-5.5,6.1-7.7c2.1-0.8,6.1-1.7,11-1.7c6.2,0,11.5,1.4,15.5,4.3c0.6,0.4,1.4,1.1,2.5,2.1l4-1.6
			c-0.5-0.6-1.2-1.4-1.9-2c-0.6-0.6-1.2-1-2.1-1.6c-4.5-2.9-10.6-4.4-18.1-4.4c-8.9,0-13.7,2.1-15.3,3c-2.8,1.5-6,4.4-6,9.8
			c0,1.2,0,4.4,3,7.1c3.2,3,7.4,3.4,16.5,4.2l1.8,0.1c4.4,0.4,11.1,0.9,14.4,2.4c3.1,1.3,4.8,3.9,4.8,7.1c0,1.1-0.3,4.8-3.8,7.5
			c-2.2,1.6-6.3,3.6-13.7,3.5l-0.2,0c-2.5,0-8.8-0.2-14.1-2.4c-4.1-1.7-6.4-3.8-7-4.5c-0.2-0.2-0.4-0.4-0.5-0.5L836.8,386.4z"/>
	</g>
	<g>
		<path d="M916.4,353.1v42.6h-6.8v-42.6h-19.7v-5.7h46.2v5.7H916.4z"/>
		<path d="M917.7,396.9h-9.4v-42.6h-19.7v-8.3h48.8v8.3h-19.7V396.9z M910.9,394.4h4.3v-42.6h19.7v-3.2h-43.7v3.2h19.7V394.4z"/>
	</g>
	<g>
		<path d="M989.6,395.6l-16.3-19.4H950v19.4h-6.9v-48.3h32.9c4.1,0,5.6,0.2,7.7,0.8c6.5,1.7,10.2,6.8,10.2,13.4
			c0,2.6-0.5,9.4-7.8,12.4c-1.2,0.5-2.5,0.9-5.3,1.3l17.8,20.5H989.6z M985.4,357c-2.1-3.6-5.3-4-9-4h-26.5v17.5h23.8
			c3.9,0,8.5-0.1,11.1-3.6c0.7-0.8,1.8-2.5,1.8-5.3C986.7,360.9,986.6,359,985.4,357z"/>
		<path d="M1001.3,396.9H989l-16.3-19.4h-21.4v19.4h-9.4v-50.8h34.1c4.3,0,5.9,0.2,8,0.8c7,1.8,11.1,7.3,11.1,14.6
			c0,3.7-1.1,10.5-8.6,13.6c-1,0.4-1.9,0.7-3.3,1L1001.3,396.9z M990.2,394.4h5.6l-17.5-20.1l2.3-0.3c2.5-0.4,3.7-0.7,5-1.2
			c6.1-2.5,7-8.1,7-11.2c0-6.2-3.4-10.6-9.2-12.2c-2-0.5-3.4-0.7-7.3-0.7h-31.6v45.8h4.4V375h25.1L990.2,394.4z M973.8,371.9h-25.1
			v-20h27.8c3.8,0,7.7,0.4,10.1,4.6c1.4,2.4,1.4,4.6,1.4,5.4c0,2.4-0.7,4.4-2.1,6.1C982.7,371.9,977.3,371.9,973.8,371.9z
			 M951.2,369.3h22.6c4.1,0,7.9-0.2,10.1-3.1c1-1.2,1.5-2.7,1.5-4.5c0-1-0.1-2.5-1.1-4.1l0,0c-1.6-2.8-3.9-3.3-7.9-3.3h-25.2V369.3z
			"/>
	</g>
	<g>
		<path d="M1050.1,395.6l-5.9-11.9h-29.6l-5.9,11.9h-7.7l25-48.3h7.3l24.7,48.3H1050.1z M1029.4,354.2l-12,24h23.8L1029.4,354.2z"/>
		<path d="M1060.1,396.9h-10.8l-5.9-11.9h-28.1l-5.9,11.9h-10.6l26.3-50.8h8.9L1060.1,396.9z M1050.8,394.4h5.1l-23.4-45.8h-5.8
			l-23.7,45.8h4.9l5.9-11.9h31.2L1050.8,394.4z M1043.3,379.5h-27.9l14.1-28.1L1043.3,379.5z M1019.5,376.9h19.8l-9.8-19.8
			L1019.5,376.9z"/>
	</g>
</g>
<g>
	<path d="M1302.3,308.1l44.9-53.6c22.2,25,41,44.5,84.5,46.2c21.1,0.8,32.7-8.2,32.4-23.3c-0.3-13.8-18.4-16.7-42.2-21.4
		c-56.4-11.5-106-27.7-106-81v-0.7c0-47.9,37-87.6,106.3-87.6c48.5,0,84.8,14.1,113.9,37.2l-38.4,53.3
		c-21.9-19.4-34.3-36.4-68.5-41.1c-19.7-2.7-39.8,3.7-38.8,21.7c1.1,21.4,20.2,20.9,44.4,25.5c64.3,11.9,107.4,30.6,107.4,81.3v0.7
		c0,52.9-44.8,87.1-112.3,87.1C1379,352.3,1334.3,336.1,1302.3,308.1z"/>
</g>
<g>
	<path d="M1541.6,308.1l44.9-53.6c22.2,25,41,44.5,84.5,46.2c21.1,0.8,32.7-8.2,32.4-23.3c-0.3-13.8-18.4-16.7-42.2-21.4
		c-56.4-11.5-106-27.7-106-81v-0.7c0-47.9,37-87.6,106.3-87.6c48.5,0,84.8,14.1,113.9,37.2l-38.4,53.3
		c-21.9-19.4-34.3-36.4-68.5-41.1c-19.7-2.7-39.8,3.7-38.8,21.7c1.1,21.4,20.2,20.9,44.4,25.5c64.3,11.9,107.4,30.6,107.4,81.3v0.7
		c0,52.9-44.8,87.1-112.3,87.1C1618.3,352.3,1573.6,336.1,1541.6,308.1z"/>
</g>
<g>
	<path d="M1826.3,878.1h84.1v252h-84.1V878.1z"/>
</g>
<g>
	<path d="M2002,1001.9l-81.6-123.8h95.6l36.3,60.1l36.6-60.1h93.8l-81.6,122.7l85.1,129.2h-95.6l-39.9-65.5l-40.2,65.5h-93.8
		L2002,1001.9z"/>
</g>
<g>
	<path d="M2271.5,1001.9l-81.6-123.8h95.6l36.3,60.1l36.6-60.1h93.8l-81.6,122.7l85.1,129.2h-95.6l-39.9-65.5l-40.2,65.5h-93.8
		L2271.5,1001.9z"/>
</g>
<g>
	<path class="st0" d="M1996.6,329.7l-1.9-6.8c3.9-1.1,7.1-2.9,9.3-6.2c1.8-2.6,1.8-4.8,0.1-6l-0.1-0.1c-1.6-1.1-3.1-0.7-7.6,3.3
		c-5.4,4.8-9.5,7.4-15.2,3.5l-0.1-0.1c-5.2-3.5-5.8-10.1-1.8-16c2.8-4.2,6.6-6.9,10.9-8.2l2.5,6.5c-3.5,1.3-6.3,3.1-7.9,5.5
		c-1.6,2.4-1.4,4.4,0,5.4l0.1,0.1c1.9,1.3,3.3,0.5,8-3.6c5.5-4.8,9.8-6.7,14.8-3.2l0.1,0.1c5.7,3.9,5.9,10.4,1.7,16.6
		C2006.5,325,2002,328.4,1996.6,329.7z"/>
</g>
<g>
	<path class="st0" d="M2260.7,1060.7l8-11.7c4.7-6.9,11.5-8.2,17.4-4.2l0.1,0.1c6.6,4.5,6.6,12,2.2,18.5l-3.3,4.8l8.6,5.9l-4.3,6.3
		L2260.7,1060.7z M2282.9,1059.3c2.1-3.2,1.5-6.3-0.9-8l-0.1-0.1c-2.8-1.9-5.7-1-7.8,2.2l-3.3,4.9l8.8,6L2282.9,1059.3z"/>
</g>
<g>
	<path class="st0" d="M2285.1,1024.8l4.3-6.3l28.7,19.6l-4.3,6.3L2285.1,1024.8z"/>
</g>
<g>
	<path class="st0" d="M2299.9,1003.1l8.9-13.1c2.5-3.7,5.4-5.8,8.6-6.4c2.7-0.5,5.5,0.2,8.2,2l0.1,0.1c4.6,3.2,5.8,7.6,4.7,12.2
		l15,0l-5,7.4l-13.4-0.1l-3.4,5l9.2,6.3l-4.3,6.3L2299.9,1003.1z M2322.4,999.9c2.1-3.1,1.7-6-0.8-7.6l-0.1-0.1
		c-2.7-1.8-5.4-0.9-7.5,2.2l-4.3,6.3l8.2,5.6L2322.4,999.9z"/>
</g>
<g>
	<path class="st0" d="M2325.8,964.9l4.3-6.3l28.7,19.6l-4.3,6.3L2325.8,964.9z"/>
</g>
<g>
	<path class="st0" d="M2350.9,940.5l-5.9,8.7l-5.8-4l16.2-23.8l5.8,4l-5.9,8.7l22.9,15.6l-4.3,6.3L2350.9,940.5z"/>
</g>
<g>
	<path class="st0" d="M2386.9,927.7l-1.9-6.8c3.9-1.1,7.1-2.9,9.3-6.2c1.8-2.6,1.8-4.8,0.1-6l-0.1-0.1c-1.6-1.1-3.1-0.7-7.6,3.3
		c-5.4,4.8-9.5,7.4-15.2,3.5l-0.1-0.1c-5.2-3.5-5.8-10.1-1.8-16c2.8-4.2,6.6-6.9,10.9-8.2l2.5,6.5c-3.5,1.3-6.3,3.1-7.9,5.5
		c-1.6,2.4-1.4,4.4,0,5.4l0.1,0.1c1.9,1.3,3.3,0.5,8-3.6c5.5-4.8,9.8-6.7,14.8-3.2l0.1,0.1c5.7,3.9,5.9,10.4,1.7,16.6
		C2396.9,923,2392.4,926.3,2386.9,927.7z"/>
</g>
<g>
	<g>
		<path d="M2475,916.6c-10.5,0-19-8.5-19-19c0-10.5,8.5-19,19-19c10.5,0,19,8.5,19,19C2494,908,2485.4,916.6,2475,916.6z
			 M2475,881.7c-8.7,0-15.8,7.1-15.8,15.8c0,8.7,7.1,15.8,15.8,15.8c8.7,0,15.8-7.1,15.8-15.8C2490.8,888.8,2483.7,881.7,2475,881.7
			z"/>
	</g>
</g>
<g>
	<g>
		<path d="M2465.4,894.8h-3.5v-2.8h10.2v2.8h-3.5v8.8h-3.2V894.8z"/>
	</g>
	<g>
		<path d="M2473.4,891.9h3.4l2.8,4.5l2.8-4.5h3.4v11.6h-3.2v-6.7l-3,4.5h-0.1l-2.9-4.5v6.6h-3.1V891.9z"/>
	</g>
</g>
<g>
	<g>
		<path class="st0" d="M167,381c-4.2,3.2-8.7,3.3-13.7,3.3h-23.2v19.4h-7v-48.3h29.5c1.2,0,2.5,0.1,3.7,0.1
			c2.1,0.2,9.1,0.5,13.2,6.4c1.6,2.4,2.5,5.3,2.5,8.3C172.1,372,171.7,377.4,167,381z M162.9,364.5c-2.7-3.4-7.4-3.4-11.3-3.4h-21.5
			v17.4h22.3c3.8,0,7.9-0.1,10.5-3.4c0.8-0.9,1.8-2.6,1.8-5.5C164.6,368.8,164.6,366.6,162.9,364.5z"/>
		<path class="st0" d="M131.5,404.9H122v-50.8h30.8c1.3,0,2.5,0.1,3.8,0.1l0.4,0c2.6,0.2,9.5,0.8,13.7,6.9c1.7,2.5,2.7,5.7,2.7,9
			c0,2.9-0.7,8.2-5.6,11.9c-4.6,3.5-9.6,3.5-14.4,3.5h-21.9V404.9z M124.5,402.4h4.4V383h24.4c4.6,0,9,0,12.9-3l0,0
			c4-3,4.6-7.5,4.6-9.9c0-2.8-0.8-5.5-2.2-7.6c-3.5-5.1-9.4-5.6-11.8-5.8l-0.4,0c-1.2-0.1-2.4-0.1-3.6-0.1h-28.2V402.4z
			 M152.4,379.8h-23.5v-20h22.8c4.1,0,9.1,0,12.3,3.9c1.3,1.6,2,3.7,2,6c0,3.2-1.1,5.2-2.1,6.3C160.7,379.8,155.9,379.8,152.4,379.8
			z M131.4,377.3h21c3.9,0,7.3-0.2,9.5-2.9c0.7-0.8,1.5-2.3,1.5-4.7c0-1.7-0.5-3.2-1.4-4.4l0,0c-2.4-2.9-6.6-2.9-10.3-2.9h-20.3
			V377.3z"/>
	</g>
	<g>
		<path class="st0" d="M178.8,403.6v-48.3h44.5v6h-37.6v14.4h36.7v5.7h-36.7v16.3h39.4v6H178.8z"/>
		<path class="st0" d="M226.3,404.9h-48.8v-50.8h47v8.5h-37.6v11.8h36.7v8.3h-36.7v13.8h39.4V404.9z M180.1,402.4h43.7V399h-39.4
			v-18.8h36.7v-3.2h-36.7V360H222v-3.4h-41.9V402.4z"/>
	</g>
	<g>
		<path class="st0" d="M279.4,403.6l-16.3-19.4h-23.3v19.4h-6.9v-48.3h32.9c4.1,0,5.6,0.2,7.7,0.8c6.5,1.7,10.2,6.8,10.2,13.4
			c0,2.6-0.5,9.4-7.8,12.4c-1.2,0.5-2.5,0.9-5.3,1.3l17.8,20.5H279.4z M275.2,365.1c-2.1-3.6-5.3-4-9-4h-26.5v17.5h23.8
			c3.9,0,8.5-0.1,11.1-3.6c0.7-0.8,1.8-2.5,1.8-5.3C276.4,368.9,276.4,367,275.2,365.1z"/>
		<path class="st0" d="M291.1,404.9h-12.3l-16.3-19.4H241v19.4h-9.4v-50.8h34.1c4.3,0,5.9,0.2,8,0.8c7,1.8,11.1,7.3,11.1,14.6
			c0,3.7-1.1,10.5-8.6,13.6c-1,0.4-1.9,0.7-3.3,1L291.1,404.9z M280,402.4h5.6L268,382.3l2.3-0.3c2.5-0.4,3.7-0.7,5-1.2
			c6.1-2.5,7-8.1,7-11.2c0-6.2-3.4-10.6-9.2-12.2c-2-0.5-3.4-0.7-7.3-0.7h-31.6v45.8h4.4V383h25.1L280,402.4z M263.5,379.9h-25.1
			v-20h27.8c3.8,0,7.7,0.4,10.1,4.6c1.4,2.4,1.4,4.6,1.4,5.3c0,2.4-0.7,4.4-2.1,6.1C272.5,379.9,267.1,379.9,263.5,379.9z
			 M241,377.3h22.6c4.1,0,7.9-0.2,10.1-3.1c1-1.2,1.5-2.7,1.5-4.5c0-1-0.1-2.5-1.1-4.1l0,0c-1.6-2.8-3.9-3.3-7.9-3.3H241V377.3z"/>
	</g>
	<g>
		<path class="st0" d="M360.1,403.6l-5.9-11.9h-29.6l-5.9,11.9H311l25-48.3h7.3l24.7,48.3H360.1z M339.5,362.2l-12,24h23.8
			L339.5,362.2z"/>
		<path class="st0" d="M370.1,404.9h-10.8l-5.9-11.9h-28.1l-5.9,11.9h-10.6l26.3-50.8h8.9L370.1,404.9z M360.9,402.4h5.1l-23.4-45.8
			h-5.8l-23.7,45.8h4.9l5.9-11.9H355L360.9,402.4z M353.3,387.5h-27.9l14.1-28.1L353.3,387.5z M329.5,384.9h19.8l-9.8-19.8
			L329.5,384.9z"/>
	</g>
	<g>
		<path class="st0" d="M420.2,403.6l-16.3-19.4h-23.3v19.4h-6.9v-48.3h32.9c4.1,0,5.6,0.2,7.7,0.8c6.5,1.7,10.2,6.8,10.2,13.4
			c0,2.6-0.5,9.4-7.8,12.4c-1.2,0.5-2.5,0.9-5.3,1.3l17.8,20.5H420.2z M416.1,365.1c-2.1-3.6-5.3-4-9-4h-26.5v17.5h23.8
			c3.9,0,8.5-0.1,11.1-3.6c0.7-0.8,1.8-2.5,1.8-5.3C417.3,368.9,417.2,367,416.1,365.1z"/>
		<path class="st0" d="M432,404.9h-12.3l-16.3-19.4h-21.4v19.4h-9.4v-50.8h34.1c4.3,0,5.9,0.2,8,0.8c7,1.8,11.1,7.3,11.1,14.6
			c0,3.7-1.1,10.5-8.6,13.6c-1,0.4-1.9,0.7-3.3,1L432,404.9z M420.8,402.4h5.6l-17.5-20.1l2.3-0.3c2.5-0.4,3.7-0.7,5-1.2
			c6.1-2.5,7-8.1,7-11.2c0-6.2-3.4-10.6-9.2-12.2c-2-0.5-3.4-0.7-7.3-0.7H375v45.8h4.4V383h25.1L420.8,402.4z M404.4,379.9h-25.1
			v-20H407c3.8,0,7.7,0.4,10.1,4.6c1.4,2.4,1.4,4.6,1.4,5.3c0,2.4-0.7,4.4-2.1,6.1C413.4,379.9,408,379.9,404.4,379.9z M381.8,377.3
			h22.6c4.1,0,7.9-0.2,10.1-3.1c1-1.2,1.5-2.7,1.5-4.5c0-1-0.1-2.5-1.1-4.1l0,0c-1.6-2.8-3.9-3.3-7.9-3.3h-25.2V377.3z"/>
	</g>
	<g>
		<path class="st0" d="M477.3,397.9c-6.6,5.5-15,5.7-23,5.7H435v-48.3h24c1.4,0,2.7,0,4,0.1c2.2,0.1,7.4,0.5,12.5,3.8
			c6.8,4.4,9.9,11.9,9.9,19.9C485.4,386.1,482.7,393.3,477.3,397.9z M466.4,361.7c-2.3-0.6-5.1-0.7-7.4-0.7h-17.1v36.8H456
			c1.3,0,2.5-0.1,3.8-0.1c2.1-0.1,8-0.2,12.9-4.5c5.5-4.9,5.8-12,5.8-14.3C478.4,370.9,474.4,363.8,466.4,361.7z"/>
		<path class="st0" d="M454.2,404.9h-20.5v-50.8H459c1.4,0,2.7,0,4.1,0.1c4.8,0.2,9.3,1.5,13.1,4c6.8,4.4,10.5,11.9,10.5,21
			c0,7.8-3.2,15.2-8.6,19.7C470.9,404.9,461.7,404.9,454.2,404.9z M436.2,402.4h18c8.6,0,16.2-0.4,22.2-5.4l0,0
			c4.8-4,7.7-10.7,7.7-17.8c0-8.2-3.3-14.9-9.3-18.9c-3.4-2.2-7.5-3.5-11.8-3.6c-1.4-0.1-2.6-0.1-4-0.1h-22.7V402.4z M456,399.1
			h-15.3v-39.3H459c2.6,0,5.4,0.1,7.8,0.7h0c7.9,2.1,12.9,9.1,13,18.4c0,3.6-0.8,10.4-6.2,15.3c-5.2,4.6-11.3,4.8-13.6,4.8l-0.2,0
			C458.4,399,457.2,399.1,456,399.1z M443.1,396.6H456c1.2,0,2.4-0.1,3.5-0.1l0.2,0c2.1-0.1,7.6-0.3,12.1-4.2
			c4.7-4.2,5.4-10.1,5.4-13.3c-0.1-8.2-4.2-14.1-11.1-16c-2.1-0.6-4.7-0.6-7.1-0.6h-15.8V396.6z"/>
	</g>
	<g>
		<path class="st0" d="M542.8,393.5c-3.8,9.2-14.5,11.4-23.2,11.4c-2.3,0-11.1,0.1-18-4.7c-2.9-2-4.2-4.1-4.9-5.3
			c-1.9-3.6-2.1-7.1-2.1-11v-28.4h6.9V384c0,0.5-0.1,2.6,0.3,4.5c0.7,4.4,2.9,6,4.6,7.1c2.4,1.5,6.4,3.2,13.1,3.2
			c0.9,0,9,0,13.7-3.4c1.6-1.2,2.6-2.9,2.9-3.5c1.1-2.3,1.1-4.5,1.1-7v-29.6h6.9v29.1C544.1,387.6,544.1,390.4,542.8,393.5z"/>
		<path class="st0" d="M519.5,406.1c-7.7,0-14-1.7-18.7-5c-2.9-2-4.4-4.3-5.2-5.8c-2-3.8-2.2-7.5-2.2-11.6v-29.7h9.4l0,30.2
			c0,0.7,0,2.5,0.3,4c0.6,4.1,2.6,5.3,4.1,6.3c3.2,2,7.3,3,12.4,3c1.4,0,8.8-0.2,12.9-3.2c1.3-1,2.2-2.4,2.5-3c1-2,1-4.1,1-6.5
			v-30.8h9.4v30.3c0,3.4-0.1,6.3-1.5,9.5C540.7,401.8,532.1,406.1,519.5,406.1C519.5,406.1,519.5,406.1,519.5,406.1z M495.9,356.6
			v27.1c0,3.9,0.1,7.1,1.9,10.4c0.8,1.4,2,3.2,4.5,4.9c4.3,3,10,4.5,17.1,4.5c8.2,0,18.6-1.8,22.2-10.6l0,0c1.2-2.8,1.3-5.3,1.3-8.5
			v-27.8h-4.4v28.3c0,2.6,0,5.1-1.2,7.6c-0.1,0.2-1.1,2.3-3.2,4c-4.6,3.4-12.2,3.7-14.4,3.7c-5.6,0-10.1-1.1-13.8-3.4
			c-2.1-1.4-4.5-3.2-5.2-8c-0.3-1.8-0.3-3.7-0.3-4.5l0-0.2v-27.4H495.9z"/>
	</g>
	<g>
		<path class="st0" d="M596.6,403.6l-5.9-11.9h-29.6l-5.9,11.9h-7.7l25-48.3h7.3l24.7,48.3H596.6z M576,362.2l-12,24h23.8L576,362.2
			z"/>
		<path class="st0" d="M606.6,404.9h-10.8l-5.9-11.9h-28.1l-5.9,11.9h-10.6l26.3-50.8h8.9L606.6,404.9z M597.4,402.4h5.1L579,356.6
			h-5.8l-23.7,45.8h4.9l5.9-11.9h31.2L597.4,402.4z M589.8,387.5h-27.9l14.1-28.1L589.8,387.5z M566,384.9h19.8l-9.8-19.8L566,384.9
			z"/>
	</g>
	<g>
		<path class="st0" d="M676.3,403.6l-5.9-11.9h-29.6l-5.9,11.9h-7.7l25-48.3h7.3l24.7,48.3H676.3z M655.6,362.2l-12,24h23.8
			L655.6,362.2z"/>
		<path class="st0" d="M686.2,404.9h-10.8l-5.9-11.9h-28.1l-5.9,11.9h-10.6l26.3-50.8h8.9L686.2,404.9z M677,402.4h5.1l-23.4-45.8
			h-5.8l-23.7,45.8h4.9l5.9-11.9h31.2L677,402.4z M669.5,387.5h-27.9l14.1-28.1L669.5,387.5z M645.7,384.9h19.8l-9.8-19.8
			L645.7,384.9z"/>
	</g>
	<g>
		<path class="st0" d="M732.2,397.9c-6.6,5.5-15,5.7-23,5.7h-19.3v-48.3h24c1.4,0,2.7,0,4,0.1c2.2,0.1,7.4,0.5,12.5,3.8
			c6.8,4.4,9.9,11.9,9.9,19.9C740.3,386.1,737.7,393.3,732.2,397.9z M721.3,361.7c-2.3-0.6-5.1-0.7-7.4-0.7h-17.1v36.8h14.1
			c1.3,0,2.5-0.1,3.8-0.1c2.1-0.1,8-0.2,12.9-4.5c5.5-4.9,5.8-12,5.8-14.3C733.3,370.9,729.3,363.8,721.3,361.7z"/>
		<path class="st0" d="M709.2,404.9h-20.5v-50.8h25.2c1.4,0,2.7,0,4.1,0.1c4.8,0.2,9.3,1.5,13.1,4c6.8,4.4,10.5,11.9,10.5,21
			c0,7.8-3.2,15.2-8.6,19.7C725.9,404.9,716.6,404.9,709.2,404.9z M691.2,402.4h18c8.6,0,16.2-0.4,22.2-5.4l0,0
			c4.8-4,7.7-10.7,7.7-17.8c0-8.2-3.3-14.9-9.3-18.9c-3.4-2.2-7.5-3.5-11.8-3.6c-1.4-0.1-2.7-0.1-4-0.1h-22.7V402.4z M710.9,399.1
			h-15.3v-39.3h18.3c2.6,0,5.4,0.1,7.8,0.7h0c7.9,2.1,12.9,9.1,13,18.4c0,3.6-0.8,10.4-6.2,15.3c-5.2,4.6-11.3,4.8-13.6,4.8l-0.2,0
			C713.4,399,712.2,399.1,710.9,399.1z M698.1,396.6h12.8c1.2,0,2.4-0.1,3.5-0.1l0.2,0c2.1-0.1,7.6-0.3,12.1-4.2
			c4.7-4.2,5.4-10.1,5.4-13.3c-0.1-8.2-4.2-14.1-11.1-16c-2.1-0.6-4.7-0.6-7.1-0.6h-15.8V396.6z"/>
	</g>
	<g>
		<path class="st0" d="M815.7,403.6l-5.9-11.9h-29.6l-5.9,11.9h-7.7l25-48.3h7.3l24.7,48.3H815.7z M795,362.2l-12,24h23.8L795,362.2
			z"/>
		<path class="st0" d="M825.7,404.9h-10.8L809,393h-28.1l-5.9,11.9h-10.6l26.3-50.8h8.9L825.7,404.9z M816.5,402.4h5.1l-23.4-45.8
			h-5.8l-23.7,45.8h4.9l5.9-11.9h31.2L816.5,402.4z M808.9,387.5H781l14.1-28.1L808.9,387.5z M785.1,384.9h19.8l-9.8-19.8
			L785.1,384.9z"/>
	</g>
	<g>
		<path class="st0" d="M873.2,397.1c-4.3,6-12.4,7-14.2,7.2c-1.1,0.1-3.9,0.5-7,0.5c-1.4,0-7.3-0.1-12.4-1.4
			c-1.1-0.3-2.8-0.7-5.2-1.7c-2.5-1.1-4.2-2.3-5.1-2.9c-2.6-2-3.8-3.8-4.5-4.9l6.4-2.6c0.3,0.4,0.6,0.8,1,1.2c1,1,3.3,2.8,6.6,4.2
			c5.5,2.3,12.1,2.3,13.7,2.3c1.2,0,8.5,0.2,13.1-3.3c2.9-2.2,3.3-5.2,3.3-6.5c0-2.8-1.6-4.9-4.1-6c-3.6-1.6-11.9-2.1-15.7-2.4
			c-9.2-0.8-13.7-1.2-17.3-4.5c-3.3-3-3.4-6.4-3.4-8.1c0-6.8,4.6-9.9,6.7-11c2.9-1.6,8.1-3.1,15.9-3.1c9.6,0,15.3,2.3,18.8,4.6
			c0.8,0.5,1.5,1,2.2,1.6c1.6,1.3,2.7,3,3.1,3.5l-6.3,2.5c-0.3-0.3-1.6-1.6-2.9-2.5c-2.7-1.8-7.2-4-14.8-4c-4.9,0-8.7,0.9-10.5,1.6
			c-4.2,1.6-5.3,4.4-5.3,6.5c0,1,0.3,2.1,0.8,3c1.7,2.7,5.1,3,7.9,3.4c5.3,0.7,10.7,1,16,1.6c7.4,0.9,10.9,2.8,13.2,5.7
			c2.4,3.1,2.5,6.2,2.5,7.6C875.6,393.2,874.1,395.8,873.2,397.1z"/>
		<path class="st0" d="M852,406.1c-0.7,0-7.1,0-12.7-1.5c-1.2-0.3-3-0.7-5.4-1.8c-2.8-1.2-4.7-2.6-5.3-3.1c-2.7-2-3.9-3.9-4.7-5
			l-1-1.4l8.7-3.5l0.7,0.9c0.3,0.3,0.5,0.6,0.8,0.9c0.5,0.5,2.6,2.4,6.2,3.9c4.9,2,10.9,2.2,13.2,2.2h0.2c0.1,0,0.2,0,0.2,0
			c6.5,0,10.1-1.6,11.9-3c2.6-2,2.8-4.7,2.8-5.5c0-2.8-1.8-4.1-3.3-4.8c-2.9-1.3-9.6-1.8-13.6-2.1l-1.8-0.1
			c-9.5-0.8-14.2-1.3-18-4.8c-3.8-3.5-3.8-7.6-3.8-9c0-7.1,4.6-10.6,7.4-12.1c2.2-1.2,7.4-3.3,16.5-3.3c8,0,14.6,1.6,19.5,4.8
			c0.9,0.6,1.6,1.1,2.3,1.8c1.3,1.1,2.4,2.5,2.9,3.2c0.1,0.2,0.2,0.3,0.3,0.4l1.1,1.3l-8.7,3.5l-0.6-0.6c-1.2-1.2-2.2-2-2.8-2.4
			c-3.6-2.5-8.4-3.8-14.1-3.8c-4.6,0-8.3,0.8-10.1,1.5c-4.1,1.5-4.5,4.2-4.5,5.3c0,0.8,0.2,1.7,0.6,2.3c1.3,2.1,4,2.4,6.6,2.7
			l0.4,0.1c2.9,0.4,5.8,0.6,8.7,0.9c2.4,0.2,4.9,0.4,7.3,0.7c7.1,0.8,11.2,2.6,14,6.1c2.8,3.6,2.8,7.2,2.8,8.4
			c0,4.2-1.5,7.1-2.7,8.8c-3,4.2-8.4,6.9-15.1,7.7C858.2,405.7,855.2,406.1,852,406.1z M826.8,394.4c0.7,0.9,1.7,2.1,3.3,3.3
			c0.5,0.4,2.2,1.7,4.8,2.8c2.2,1,3.8,1.4,4.9,1.6c5.6,1.4,12,1.4,12.2,1.4c3.1,0,5.9-0.4,6.8-0.5c6-0.7,10.8-3.1,13.3-6.7l0,0
			c0.8-1.1,2.2-3.6,2.2-7.3c0-1,0-3.9-2.3-6.8c-1.7-2.1-4.4-4.3-12.3-5.2c-2.4-0.3-4.8-0.5-7.2-0.7c-2.9-0.2-5.8-0.5-8.7-0.9l-0.4,0
			c-2.9-0.3-6.5-0.8-8.4-3.9c-0.7-1.1-1-2.4-1-3.7c0-1.3,0.4-5.5,6.1-7.7c2.1-0.8,6.1-1.7,11-1.7c6.2,0,11.5,1.4,15.5,4.3
			c0.6,0.4,1.4,1.1,2.5,2.1l4-1.6c-0.5-0.6-1.2-1.4-1.9-2c-0.6-0.6-1.2-1-2.1-1.6c-4.5-2.9-10.6-4.4-18.1-4.4
			c-8.9,0-13.7,2.1-15.3,3c-2.8,1.5-6,4.4-6,9.8c0,1.2,0,4.4,3,7.1c3.2,3,7.4,3.4,16.5,4.2l1.8,0.1c4.4,0.4,11.1,0.9,14.4,2.4
			c3.1,1.3,4.8,3.9,4.8,7.1c0,1.1-0.3,4.8-3.8,7.5c-2.2,1.6-6.3,3.6-13.7,3.5l-0.2,0c-2.5,0-8.8-0.2-14.1-2.4
			c-4.1-1.7-6.4-3.8-7-4.5c-0.2-0.2-0.4-0.4-0.5-0.5L826.8,394.4z"/>
	</g>
	<g>
		<path class="st0" d="M906.5,361.1v42.6h-6.8v-42.6h-19.7v-5.7h46.2v5.7H906.5z"/>
		<path class="st0" d="M907.7,404.9h-9.4v-42.6h-19.7v-8.3h48.8v8.3h-19.7V404.9z M900.9,402.4h4.3v-42.6h19.7v-3.2h-43.7v3.2h19.7
			V402.4z"/>
	</g>
	<g>
		<path class="st0" d="M979.6,403.6l-16.3-19.4H940v19.4h-6.9v-48.3H966c4.1,0,5.6,0.2,7.7,0.8c6.5,1.7,10.2,6.8,10.2,13.4
			c0,2.6-0.5,9.4-7.8,12.4c-1.2,0.5-2.5,0.9-5.3,1.3l17.8,20.5H979.6z M975.4,365.1c-2.1-3.6-5.3-4-9-4h-26.5v17.5h23.8
			c3.9,0,8.5-0.1,11.1-3.6c0.7-0.8,1.8-2.5,1.8-5.3C976.7,368.9,976.6,367,975.4,365.1z"/>
		<path class="st0" d="M991.3,404.9H979l-16.3-19.4h-21.4v19.4h-9.4v-50.8H966c4.3,0,5.9,0.2,8,0.8c7,1.8,11.1,7.3,11.1,14.6
			c0,3.7-1.1,10.5-8.6,13.6c-1,0.4-1.9,0.7-3.3,1L991.3,404.9z M980.2,402.4h5.6l-17.5-20.1l2.3-0.3c2.5-0.4,3.7-0.7,5-1.2
			c6.1-2.5,7-8.1,7-11.2c0-6.2-3.4-10.6-9.2-12.2c-2-0.5-3.4-0.7-7.3-0.7h-31.6v45.8h4.4V383h25.1L980.2,402.4z M963.8,379.9h-25.1
			v-20h27.8c3.8,0,7.7,0.4,10.1,4.6c1.4,2.4,1.4,4.6,1.4,5.4c0,2.4-0.7,4.4-2.1,6.1C972.7,379.9,967.3,379.9,963.8,379.9z
			 M941.2,377.3h22.6c4.1,0,7.9-0.2,10.1-3.1c1-1.2,1.5-2.7,1.5-4.5c0-1-0.1-2.5-1.1-4.1l0,0c-1.6-2.8-3.9-3.3-7.9-3.3h-25.2V377.3z
			"/>
	</g>
	<g>
		<path class="st0" d="M1040.1,403.6l-5.9-11.9h-29.6l-5.9,11.9h-7.7l25-48.3h7.3l24.7,48.3H1040.1z M1019.4,362.2l-12,24h23.8
			L1019.4,362.2z"/>
		<path class="st0" d="M1050.1,404.9h-10.8l-5.9-11.9h-28.1l-5.9,11.9h-10.6l26.3-50.8h8.9L1050.1,404.9z M1040.9,402.4h5.1
			l-23.4-45.8h-5.8L993,402.4h4.9l5.9-11.9h31.2L1040.9,402.4z M1033.3,387.5h-27.9l14.1-28.1L1033.3,387.5z M1009.5,384.9h19.8
			l-9.8-19.8L1009.5,384.9z"/>
	</g>
</g>
<g>
	<path d="M1810.7,102.3h73.4l59.8,97l59.8-97h73.4v250.6H2008V208.9l-64.1,98.1h-1.4l-63.7-97.4v143.2h-68V102.3z"/>
	<path d="M2105,228.3v-0.7c0-72,58-130.3,135.3-130.3s134.6,57.6,134.6,129.6v0.7c0,72-58,130.3-135.3,130.3S2105,300.2,2105,228.3z
		 M2304.1,228.3v-0.7c0-36.2-26.1-67.7-64.4-67.7c-37.9,0-63.4,30.8-63.4,66.9v0.7c0,36.2,26.1,67.7,64.1,67.7
		C2278.6,295.2,2304.1,264.4,2304.1,228.3z"/>
	<path d="M2403.2,102.3h96.7c89.5,0,141.4,51.6,141.4,123.9v0.7c0,72.3-52.6,126-142.8,126h-95.2V102.3z M2501,291.3
		c41.5,0,69.1-22.9,69.1-63.4v-0.7c0-40.1-27.6-63.4-69.1-63.4h-28.3v127.4H2501z"/>
</g>
<text transform="matrix(1 0 0 1 2576.5684 1125.599)" style="font-family:'Gotham-Black'; font-size:358px; letter-spacing:-7;">MOD</text>
</svg>
